<?xml version="1.0" encoding="utf-8"?>
<!-- Generator: Adobe Illustrator 28.2.0, SVG Export Plug-In . SVG Version: 6.00 Build 0)  -->
<svg version="1.1" id="Calque_1" xmlns="http://www.w3.org/2000/svg" xmlns:xlink="http://www.w3.org/1999/xlink" x="0px" y="0px"
	 viewBox="0 0 188.4 100" style="enable-background:new 0 0 188.4 100;" xml:space="preserve">
<style type="text/css">
	.st0{fill:#0000FF;}
</style>
<path class="st0" d="M179.5,8.9L179.5,8.9C167.5-3,148.2-3,136.3,8.9l-0.5,0.5c-0.2-0.2-0.3-0.3-0.5-0.5l0,0
	C123.4-3,104.1-3,92.2,8.9l-0.6,0.6c-0.2-0.2-0.4-0.4-0.5-0.6l0,0C79.1-3,59.8-3,47.9,8.9l-39,39C-3,59.8-3,79.1,8.9,91.1l0,0
	c11.9,11.9,31.2,11.9,43.2,0l0.6-0.6c0.2,0.2,0.4,0.4,0.5,0.6l0,0c11.9,11.9,31.2,11.9,43.2,0l0.5-0.5c0.2,0.2,0.3,0.3,0.5,0.5l0,0
	c11.9,11.9,31.2,11.9,43.2,0l39-39C191.4,40.2,191.4,20.9,179.5,8.9z"/>
</svg>
