<?xml version="1.0" encoding="utf-8"?>
<!-- Generator: Adobe Illustrator 28.2.0, SVG Export Plug-In . SVG Version: 6.00 Build 0)  -->
<svg version="1.1" id="Calque_1" xmlns="http://www.w3.org/2000/svg" xmlns:xlink="http://www.w3.org/1999/xlink" x="0px" y="0px"
	 viewBox="0 0 102.2 100" style="enable-background:new 0 0 102.2 100;" xml:space="preserve">
<style type="text/css">
	.st0{fill:#FF00FF;}
</style>
<path class="st0" d="M68.9,23.5l17.8-5.4c4.4-1.3,8.1,3.4,5.8,7.3l-9.3,16.1c-1.3,2.3-0.7,5.2,1.5,6.7l15.4,10.6
	c3.8,2.6,2.4,8.4-2.1,9.1l-18.4,2.8c-2.6,0.4-4.5,2.7-4.3,5.3l1.3,18.6c0.3,4.6-5.1,7.1-8.4,4L54.5,86c-1.9-1.8-4.9-1.8-6.8,0
	L33.9,98.6c-3.4,3.1-8.8,0.5-8.4-4.1l1.4-18.6c0.2-2.6-1.7-4.9-4.2-5.4L4.3,67.7c-4.5-0.7-5.8-6.6-2.1-9.1l15.4-10.5
	c2.2-1.5,2.8-4.4,1.5-6.7L9.9,25.2c-2.3-4,1.5-8.6,5.9-7.3l17.8,5.5c2.5,0.8,5.2-0.5,6.2-2.9l6.9-17.3c1.7-4.2,7.7-4.2,9.4,0
	l6.8,17.4C63.7,23,66.4,24.3,68.9,23.5L68.9,23.5z"/>
</svg>
